<svg width="24" height="25" viewBox="0 0 24 25" fill="none" xmlns="http://www.w3.org/2000/svg">
<path d="M12 23.25C6.07 23.25 1.25 18.43 1.25 12.5C1.25 6.57 6.07 1.75 12 1.75C12.41 1.75 12.75 2.09 12.75 2.5C12.75 2.91 12.41 3.25 12 3.25C6.9 3.25 2.75 7.4 2.75 12.5C2.75 17.6 6.9 21.75 12 21.75C17.1 21.75 21.25 17.6 21.25 12.5C21.25 12.09 21.59 11.75 22 11.75C22.41 11.75 22.75 12.09 22.75 12.5C22.75 18.43 17.93 23.25 12 23.25Z" fill="black"/>
<path d="M13.0004 12.25C12.8104 12.25 12.6204 12.18 12.4704 12.03C12.1804 11.74 12.1804 11.26 12.4704 10.97L20.6704 2.76999C20.9604 2.47999 21.4404 2.47999 21.7304 2.76999C22.0204 3.05999 22.0204 3.53999 21.7304 3.82999L13.5304 12.03C13.3804 12.18 13.1904 12.25 13.0004 12.25Z" fill="black"/>
<path d="M21.9999 8.08C21.5899 8.08 21.2499 7.74 21.2499 7.33V3.25H17.1699C16.7599 3.25 16.4199 2.91 16.4199 2.5C16.4199 2.09 16.7599 1.75 17.1699 1.75H21.9999C22.4099 1.75 22.7499 2.09 22.7499 2.5V7.33C22.7499 7.74 22.4099 8.08 21.9999 8.08Z" fill="black"/>
</svg>
