<svg width="25" height="24" viewBox="0 0 25 24" fill="none" xmlns="http://www.w3.org/2000/svg">
<g clip-path="url(#clip0_5102_44044)">
<path d="M12.1992 2.16094C15.4055 2.16094 15.7852 2.175 17.0461 2.23125C18.218 2.28281 18.8508 2.47969 19.2727 2.64375C19.8305 2.85938 20.2336 3.12188 20.6508 3.53906C21.0727 3.96094 21.3305 4.35938 21.5461 4.91719C21.7102 5.33906 21.907 5.97656 21.9586 7.14375C22.0148 8.40938 22.0289 8.78906 22.0289 11.9906C22.0289 15.1969 22.0148 15.5766 21.9586 16.8375C21.907 18.0094 21.7102 18.6422 21.5461 19.0641C21.3305 19.6219 21.068 20.025 20.6508 20.4422C20.2289 20.8641 19.8305 21.1219 19.2727 21.3375C18.8508 21.5016 18.2133 21.6984 17.0461 21.75C15.7805 21.8063 15.4008 21.8203 12.1992 21.8203C8.99297 21.8203 8.61328 21.8063 7.35235 21.75C6.18047 21.6984 5.54766 21.5016 5.12578 21.3375C4.56797 21.1219 4.16484 20.8594 3.74766 20.4422C3.32578 20.0203 3.06797 19.6219 2.85234 19.0641C2.68828 18.6422 2.49141 18.0047 2.43984 16.8375C2.38359 15.5719 2.36953 15.1922 2.36953 11.9906C2.36953 8.78438 2.38359 8.40469 2.43984 7.14375C2.49141 5.97188 2.68828 5.33906 2.85234 4.91719C3.06797 4.35938 3.33047 3.95625 3.74766 3.53906C4.16953 3.11719 4.56797 2.85938 5.12578 2.64375C5.54766 2.47969 6.18516 2.28281 7.35235 2.23125C8.61328 2.175 8.99297 2.16094 12.1992 2.16094ZM12.1992 0C8.94141 0 8.5336 0.0140625 7.25391 0.0703125C5.97891 0.126563 5.10234 0.332812 4.34297 0.628125C3.55078 0.9375 2.88047 1.34531 2.21484 2.01563C1.54453 2.68125 1.13672 3.35156 0.827344 4.13906C0.532031 4.90313 0.325781 5.775 0.269531 7.05C0.213281 8.33438 0.199219 8.74219 0.199219 12C0.199219 15.2578 0.213281 15.6656 0.269531 16.9453C0.325781 18.2203 0.532031 19.0969 0.827344 19.8563C1.13672 20.6484 1.54453 21.3188 2.21484 21.9844C2.88047 22.65 3.55078 23.0625 4.33828 23.3672C5.10234 23.6625 5.97422 23.8688 7.24922 23.925C8.52891 23.9813 8.93672 23.9953 12.1945 23.9953C15.4523 23.9953 15.8602 23.9813 17.1398 23.925C18.4148 23.8688 19.2914 23.6625 20.0508 23.3672C20.8383 23.0625 21.5086 22.65 22.1742 21.9844C22.8398 21.3188 23.2523 20.6484 23.557 19.8609C23.8523 19.0969 24.0586 18.225 24.1148 16.95C24.1711 15.6703 24.1852 15.2625 24.1852 12.0047C24.1852 8.74688 24.1711 8.33906 24.1148 7.05938C24.0586 5.78438 23.8523 4.90781 23.557 4.14844C23.2617 3.35156 22.8539 2.68125 22.1836 2.01563C21.518 1.35 20.8477 0.9375 20.0602 0.632813C19.2961 0.3375 18.4242 0.13125 17.1492 0.075C15.8648 0.0140625 15.457 0 12.1992 0Z" fill="#121416"/>
<path d="M12.1992 5.83594C8.79609 5.83594 6.03516 8.59688 6.03516 12C6.03516 15.4031 8.79609 18.1641 12.1992 18.1641C15.6023 18.1641 18.3633 15.4031 18.3633 12C18.3633 8.59688 15.6023 5.83594 12.1992 5.83594ZM12.1992 15.9984C9.99141 15.9984 8.20078 14.2078 8.20078 12C8.20078 9.79219 9.99141 8.00156 12.1992 8.00156C14.407 8.00156 16.1977 9.79219 16.1977 12C16.1977 14.2078 14.407 15.9984 12.1992 15.9984Z" fill="#121416"/>
<path d="M20.0461 5.59238C20.0461 6.38926 19.3992 7.03145 18.607 7.03145C17.8102 7.03145 17.168 6.38457 17.168 5.59238C17.168 4.79551 17.8148 4.15332 18.607 4.15332C19.3992 4.15332 20.0461 4.8002 20.0461 5.59238Z" fill="#121416"/>
</g>
<defs>
<clipPath id="clip0_5102_44044">
<rect width="24" height="24" fill="white" transform="translate(0.199219)"/>
</clipPath>
</defs>
</svg>
