<svg width="76" height="40" viewBox="0 0 76 40" fill="none" xmlns="http://www.w3.org/2000/svg">
<g clip-path="url(#clip0_5132_4360)">
<path d="M27.414 20.2608L23.2188 21.6721V5.02641H27.414V6.55372C28.458 5.29708 29.8113 4.69775 31.3193 4.69775C34.6252 4.69775 37.0999 7.15305 37.0999 11.5996C37.0999 16.0462 34.6252 18.5209 31.3193 18.5209C29.85 18.5209 28.516 17.9409 27.414 16.6456V20.2802V20.2608ZM29.9273 8.39036C29.0187 8.39036 27.936 8.87368 27.414 9.58901V13.5909C27.936 14.2676 29.0187 14.7896 29.9273 14.7896C31.5706 14.7896 32.8273 13.5716 32.8273 11.5803C32.8273 9.589 31.5706 8.39036 29.9273 8.39036Z" fill="black"/>
<path d="M39.3047 19.5843V0H43.5V18.1924L39.3047 19.5843Z" fill="black"/>
<path d="M55.4479 19.5846V16.6073C54.6359 17.5353 53.1086 18.5213 50.8853 18.5213C47.8887 18.5213 46.5547 16.8393 46.5547 14.4034V5.02686H50.75V12.6827C50.75 14.268 51.5619 14.8094 52.9346 14.8094C54.1332 14.8094 54.9452 14.152 55.4479 13.5334V5.02686H59.6431V18.1926L55.4479 19.5846Z" fill="black"/>
<path d="M63.3351 13.6103C64.3211 14.4803 66.409 15.3502 67.975 15.3502C69.2317 15.3502 69.7537 14.9442 69.7537 14.3643C69.7537 13.6876 68.845 13.4363 67.4917 13.2236C65.2491 12.837 62.0978 12.373 62.0978 9.02835C62.0978 6.70839 64.0891 4.69775 67.743 4.69775C69.947 4.69775 71.8416 5.41308 73.2529 6.43772L71.6483 9.22168C70.8556 8.46769 69.367 7.7717 67.7817 7.7717C66.7957 7.7717 66.1191 8.10036 66.1191 8.68035C66.1191 9.26034 66.8344 9.49234 68.2263 9.74367C70.469 10.1303 73.7943 10.6717 73.7943 14.1709C73.7943 16.6842 71.5903 18.5402 67.801 18.5402C65.4617 18.5402 63.0258 17.7475 61.6338 16.5296L63.3738 13.6296L63.3351 13.6103Z" fill="black"/>
<path d="M8.68112 39.6712V38.3566C7.86913 39.3425 6.28382 39.9999 4.58252 39.9999C2.57189 39.9999 0.0585938 38.6272 0.0585938 35.6693C0.0585938 32.4793 2.57189 31.532 4.58252 31.532C6.32249 31.532 7.88846 32.0733 8.68112 33.0593V31.3967C8.68112 30.256 7.69513 29.4827 6.01316 29.4827C4.69852 29.4827 3.34521 29.966 2.28189 30.8747L0.773915 28.2261C2.45589 26.7761 4.73718 26.1768 6.74782 26.1768C9.91843 26.1768 12.8764 27.3561 12.8764 31.4353V39.6712H8.68112ZM8.68112 35.1086C8.23646 34.5093 7.26981 34.1806 6.34182 34.1806C5.22051 34.1806 4.23452 34.6639 4.23452 35.7079C4.23452 36.7519 5.22051 37.2352 6.34182 37.2352C7.26981 37.2352 8.25579 36.9066 8.68112 36.2879V35.1086Z" fill="black"/>
<path d="M15.9316 39.6711V22.89L20.1269 21.498V39.6904H15.9316V39.6711Z" fill="black"/>
<path d="M32.1332 39.6714V32.0155C32.1332 30.4109 31.2826 29.8889 29.9486 29.8889C28.7306 29.8889 27.8993 30.5655 27.416 31.1648V39.6714H23.2207V22.8903L27.416 21.479V28.1102C28.2086 27.1822 29.7553 26.1769 31.9786 26.1769C34.9752 26.1769 36.3478 27.8589 36.3478 30.2949V39.6714H32.1526H32.1332Z" fill="#008743"/>
<path d="M47.1538 39.6712V38.3566C46.3418 39.3425 44.7565 39.9999 43.0552 39.9999C41.0445 39.9999 38.5312 38.6272 38.5312 35.6693C38.5312 32.4793 41.0445 31.532 43.0552 31.532C44.7951 31.532 46.3611 32.0733 47.1538 33.0593V31.3967C47.1538 30.256 46.1678 29.4827 44.4858 29.4827C43.1712 29.4827 41.8179 29.966 40.7545 30.8747L39.2466 28.2261C40.9285 26.7761 43.2098 26.1768 45.2205 26.1768C48.3911 26.1768 51.349 27.3561 51.349 31.4353V39.6712H47.1538ZM47.1538 35.1086C46.7091 34.5093 45.7425 34.1806 44.8145 34.1806C43.6932 34.1806 42.7072 34.6639 42.7072 35.7079C42.7072 36.7519 43.6932 37.2352 44.8145 37.2352C45.7425 37.2352 46.7284 36.9066 47.1538 36.2879V35.1086Z" fill="#008743"/>
<path d="M63.278 39.6714V38.1441C62.1954 39.4007 60.8421 40 59.3727 40C56.1248 40 53.5342 37.5447 53.5342 33.0788C53.5342 28.6129 56.0668 26.1769 59.3727 26.1769C60.8227 26.1769 62.2147 26.7569 63.278 28.0522V22.871L67.4539 21.479V39.6714H63.278ZM63.278 31.0488C62.7367 30.3335 61.6347 29.8695 60.7454 29.8695C59.0828 29.8695 57.8454 31.0875 57.8454 33.0595C57.8454 35.0314 59.0634 36.2688 60.7454 36.2688C61.654 36.2688 62.7367 35.7854 63.278 35.0701V31.0295V31.0488Z" fill="#008743"/>
<path d="M70.5283 39.6716V27.8978L74.7236 26.5059V39.6716H70.5283Z" fill="#008743"/>
<path d="M20.609 6.51541V18.7532C20.609 20.0872 18.927 20.7252 18.0184 19.7199L16.4911 18.0185C16.2011 17.7092 15.7951 17.5352 15.3697 17.5352H1.48864C0.676655 17.5352 0 16.8779 0 16.0852V6.51541C0 5.70342 0.657322 5.06543 1.48864 5.06543H19.1203C19.9323 5.06543 20.609 5.72275 20.609 6.51541Z" fill="#008743"/>
<path d="M8.69967 14.7705V10.1113L6.9597 14.7705H6.16705L4.42707 10.1113V14.7705H2.64844V7.86865H5.12306L6.55371 11.7739L8.00368 7.86865H10.4783V14.7705H8.69967Z" fill="white"/>
<path d="M16.4906 14.7705L16.1426 13.7266H13.2813L12.9333 14.7705H11L13.5906 7.86865H15.8333L18.4432 14.7705H16.5099H16.4906ZM14.6926 9.41529L13.726 12.2186H15.6593L14.6926 9.41529Z" fill="white"/>
<path d="M70.2373 22.4266C70.2373 21.0926 71.3006 20.0293 72.6346 20.0293C73.9686 20.0293 75.0319 21.0926 75.0319 22.4266C75.0319 23.7606 73.9686 24.8239 72.6346 24.8239C71.3006 24.8239 70.2373 23.7606 70.2373 22.4266Z" fill="#FEC200"/>
</g>
<defs>
<clipPath id="clip0_5132_4360">
<rect width="75.0314" height="40" fill="white"/>
</clipPath>
</defs>
</svg>
