<svg width="254" height="100" viewBox="0 0 254 100" fill="none" xmlns="http://www.w3.org/2000/svg">
<g clip-path="url(#clip0_5088_3985)">
<path d="M246.915 78.2851L247.376 67.4692L229.792 68.2519L229.614 72.4621C229.188 72.4265 228.751 72.4028 228.313 72.4028C228.076 72.4028 227.851 72.4028 227.603 72.4028C227.449 72.4028 227.307 72.4265 227.165 72.4384L229.07 48.7785L243.152 47.9602L244.643 29.8862L198.138 32.5664L197.534 39.9312C197.132 39.4331 196.706 38.9587 196.256 38.5081C194.481 36.7647 192.269 35.4365 189.677 34.5707C187.571 33.8591 185.24 33.5033 182.743 33.5033C182.222 33.5033 181.701 33.5152 181.157 33.5508L156.721 34.9621L153.23 77.4312L142.379 35.8041L123.056 36.9189L105.436 79.6846L106.169 70.7306L108.879 37.7491L91.5435 38.7453L75.4502 68.7382L64.1612 40.3226L47.0503 41.3069L45.6658 58.1357C45.6184 56.2382 45.2871 54.3999 44.6599 52.6803C43.7961 50.2965 42.4116 48.2448 40.5538 46.5489C38.7196 44.8767 36.424 43.6077 33.7378 42.7538C31.5841 42.066 29.1702 41.722 26.5668 41.722C25.9752 41.722 25.3717 41.7457 24.7445 41.7813C21.5613 41.9711 18.6267 42.5878 16.0115 43.6314C13.3964 44.6751 11.1007 46.0271 9.19553 47.6518C7.26671 49.3003 5.72838 51.2216 4.60421 53.38C3.48005 55.5384 2.81738 57.8155 2.62805 60.1281C2.34405 63.5674 2.82922 66.4374 4.05988 68.6789C5.25504 70.8492 6.84071 72.6162 8.76953 73.9327C10.6037 75.1898 12.6745 76.1741 14.9229 76.8501C15.3607 76.9806 15.7985 77.1229 16.2363 77.2415L0.214057 79.5778L0.0838904 81.0958C-0.140942 83.871 0.19039 86.492 1.06605 88.8639C1.23172 89.3145 1.42105 89.7652 1.62222 90.1803L1.27905 90.2159L2.48605 91.8643V91.8999H2.50972L3.21972 92.8724C3.78771 93.6551 4.45038 94.3904 5.17221 95.0783C7.00637 96.8216 9.33753 98.1262 12.1065 98.992C14.2957 99.6679 16.7452 100.012 19.3958 100.012C20.023 100.012 20.6738 99.9882 21.3247 99.9526C24.6143 99.7628 27.6792 99.0868 30.46 97.9483C33.229 96.8098 35.6548 95.3511 37.6901 93.6314C39.4415 92.1371 40.897 90.4649 42.033 88.6504L43.3228 86.5868L43.2754 87.2035L42.3998 97.9009L60.7414 96.8454L62.2679 78.3088L69.3087 96.3473L77.5684 95.8729L87.3782 77.3482L85.899 95.3866L102.584 94.426L104.241 94.3193L118.89 93.4772L122.582 83.6812L135.469 82.9341L137.575 92.3862L154.52 91.4137L156.863 91.2595L163.419 90.88L162.579 92.0778L167.052 95.7899C168.223 96.7623 169.608 97.5214 171.288 98.1025C172.767 98.6124 174.4 98.8615 176.163 98.8615C176.436 98.8615 176.72 98.8615 177.027 98.8496C179.642 98.731 181.879 98.0906 183.678 96.9521C184.246 97.2367 184.837 97.4858 185.464 97.6755C186.742 98.0669 188.115 98.2685 189.547 98.2685C189.772 98.2685 189.997 98.2685 190.281 98.2567C191.357 98.2092 192.434 98.055 193.452 97.806L211.734 96.9877H211.841C212.586 97.1063 213.379 97.1656 214.196 97.1656C214.421 97.1656 214.645 97.1656 214.917 97.1537C216.515 97.0826 218.03 96.7742 219.402 96.2524C220.053 96.0033 220.68 95.7068 221.272 95.3629C221.769 95.612 222.301 95.8254 222.834 95.9915C224.088 96.3947 225.461 96.6082 226.928 96.6082C227.189 96.6082 227.437 96.6082 227.638 96.5963C229.248 96.5252 230.762 96.2168 232.123 95.695C233.129 95.3155 234.064 94.8174 234.928 94.2007C236.596 95.3866 238.655 95.9796 241.045 95.9796C241.258 95.9796 241.471 95.9796 241.708 95.9796C242.43 95.944 243.116 95.8729 243.767 95.7424C244.442 95.612 245.104 95.4341 245.708 95.2087C246.311 94.9953 246.915 94.7106 247.471 94.4023C247.85 94.2007 248.24 93.9635 248.619 93.7263L253.601 90.5479L246.891 78.2851H246.915ZM191.712 51.0674C191.866 51.0674 191.996 51.103 192.103 51.1741L192.328 51.3164L192.375 51.5892C192.387 51.6604 192.387 51.7434 192.375 51.8264C192.328 52.4075 191.772 52.9175 191.204 52.9175C190.991 52.9175 190.813 52.8463 190.695 52.7159C190.565 52.5735 190.517 52.3838 190.529 52.1703C190.576 51.5892 191.133 51.0792 191.701 51.0792L191.712 51.0674ZM191.393 68.2163C192.695 67.3387 193.949 66.3069 195.132 65.1447C196.434 63.8046 197.688 62.1205 198.872 60.14C200.138 58.029 200.895 55.4554 201.144 52.4905C201.203 51.779 201.226 51.0792 201.215 50.3914L210.729 49.8458L208.752 74.4308C208.22 74.1817 207.664 73.9682 207.084 73.8259C206.966 73.8022 206.859 73.7666 206.741 73.7429L206.93 69.2837L192.233 69.936L191.405 68.2282L191.393 68.2163ZM171.608 75.7353L171.773 73.7429L174.187 73.6006C174.377 74.0275 174.554 74.4426 174.743 74.8577C174.152 74.9526 173.572 75.0712 173.016 75.2253C172.531 75.3677 172.057 75.5456 171.608 75.7353ZM181.323 55.1234C180.613 55.7756 179.666 56.1196 178.447 56.1907L173.181 56.4991L173.619 51.1385L179.418 50.8065C179.548 50.8065 179.678 50.8065 179.808 50.8065C180.731 50.8065 181.394 51.0081 181.832 51.4113C182.293 51.8501 182.471 52.3364 182.411 53.0361C182.34 53.8425 181.997 54.5067 181.311 55.1234H181.323ZM130.818 61.231L132.191 67.3269L128.44 67.5522L130.83 61.231H130.818ZM89.875 68.5247C89.6502 68.4061 89.5318 68.157 89.5555 67.8605C89.6028 67.2794 90.1472 66.7695 90.727 66.7695C91.1293 66.7695 91.4015 67.0304 91.4133 67.4217V67.7894L91.1648 68.1215C90.94 68.4179 90.5968 68.5958 90.1353 68.5958H89.9815L89.875 68.5247ZM51.4878 85.3771L51.5824 85.0332C51.7244 84.5233 52.2214 84.1319 52.7184 84.1319C52.9314 84.1319 53.1089 84.2031 53.2391 84.3335C53.3693 84.4758 53.4166 84.6656 53.4048 84.879C53.3574 85.4602 52.8013 85.9701 52.2333 85.9701C51.8546 85.9701 51.7008 85.7685 51.6298 85.6381L51.4878 85.3771ZM27.6082 62.0019L27.5372 62.8202C27.2295 62.7372 26.9218 62.6542 26.626 62.583C24.9812 62.1561 23.6085 61.7054 22.5435 61.231C22.0347 61.0057 22.0465 60.8871 22.0583 60.7685C22.082 60.4365 22.3187 60.0569 22.7565 59.6537C23.2298 59.2149 23.857 58.9777 24.6853 58.9303C24.7682 58.9303 24.851 58.9303 24.9338 58.9303C25.7385 58.9303 26.3775 59.1675 26.9455 59.6893C27.2887 60.0095 27.7383 60.5906 27.62 62.0019H27.6082ZM18.603 66.5086L18.7213 66.7932L18.5912 67.149C18.4255 67.6115 17.9403 67.9673 17.4788 67.9673C17.2658 67.9673 17.0883 67.8961 16.9582 67.7657C16.828 67.6234 16.7807 67.4336 16.7925 67.2201C16.8398 66.639 17.3842 66.129 17.964 66.129C18.2598 66.129 18.4965 66.2714 18.5912 66.5204L18.603 66.5086ZM18.0587 79.3288L18.1888 77.8107C19.0527 78.0598 19.881 78.297 20.6857 78.5223C22.3187 78.973 23.6913 79.4592 24.7563 79.9455C25.3007 80.2064 25.2888 80.3487 25.277 80.4673C25.2652 80.6333 25.1468 81.084 24.3658 81.8311C23.786 82.3885 22.7802 82.7206 21.372 82.7918C21.2773 82.7918 21.1708 82.7918 21.0762 82.7918C20.1177 82.7918 19.4195 82.519 18.8515 81.926C18.461 81.5109 17.9403 80.7993 18.0705 79.3169L18.0587 79.3288ZM43.2991 72.1774C42.104 70.0427 40.5183 68.2994 38.5895 66.9829C37.1931 66.0342 35.6548 65.2514 34.0336 64.6585L33.6195 64.5043L28.5312 65.038L28.5903 64.2197L45.3463 61.7766L45.0741 65.1328L44.2813 74.7628C44.0328 73.8378 43.7251 72.9602 43.2991 72.1774Z" fill="white"/>
<path d="M7.8459 38.8638H7.96423L11.5497 38.6385C12.1887 38.6029 12.7685 38.3539 13.2419 37.9269C13.7507 37.4763 14.0465 36.8714 14.1294 36.2073L14.5199 32.7087C15.0642 33.3136 15.786 33.6456 16.5907 33.6456H16.709L18.271 33.5508C18.9337 33.5152 19.549 33.2543 20.0697 32.8155L19.8094 35.1874C19.7265 35.9464 19.9632 36.658 20.472 37.1916C20.9454 37.6897 21.5844 37.9744 22.2825 37.9744H22.389L25.9863 37.749C26.6253 37.7135 27.217 37.4644 27.6903 37.0375C27.714 37.0137 27.7258 36.99 27.7495 36.9782C28.1755 37.3458 28.708 37.5474 29.276 37.5474H29.3707L33.0627 37.3221C34.175 37.2509 35.0862 36.658 35.6897 35.555L36.518 33.7879L41.1448 33.5033L41.4406 34.6418L41.488 34.7841C41.8785 35.9227 42.8725 36.6224 44.0795 36.6224H44.2215L47.9135 36.3852C48.517 36.3496 49.085 36.0887 49.5346 35.6499C49.9961 35.2111 50.2801 34.6537 50.3393 34.0726C50.3748 33.7405 50.363 33.4677 50.292 33.1238L45.8071 15.5716C45.4876 14.2078 44.4226 13.3539 43.0263 13.3539H42.8606L38.4468 13.6267C37.1807 13.7097 36.1512 14.4331 35.6187 15.6191L29.2168 29.4473L30.6013 17.0896C30.6842 16.3188 30.4475 15.5953 29.9387 15.0617C29.4653 14.5517 28.8145 14.2789 28.1163 14.2789L24.7912 14.4805C23.6907 14.5517 22.7677 15.121 22.2352 16.0223L18.3184 22.0588L15.9635 16.9473C15.5257 15.8444 14.5435 15.1921 13.3484 15.1921H13.1945L9.97589 15.3937C9.32506 15.4412 8.72156 15.7021 8.23639 16.1646C7.76306 16.6271 7.46723 17.2082 7.39623 17.8605L5.3609 36.065C5.26624 36.8477 5.52657 37.6067 6.0709 38.1404C6.5324 38.6029 7.1714 38.852 7.8459 38.852V38.8638Z" fill="white"/>
<path d="M56.3278 35.8515H56.4343L60.505 35.5906C61.1795 35.555 61.7948 35.2704 62.28 34.7723C62.7178 34.3216 62.99 33.7524 63.061 33.1475L63.558 28.6765L65.1436 28.5816C67.9363 28.4037 70.2675 27.621 72.0543 26.2571C72.6578 25.7946 73.1666 25.2728 73.6163 24.6916L72.8116 31.8786C72.7288 32.6257 72.9655 33.3373 73.4743 33.871C73.9476 34.3809 74.5866 34.6537 75.2848 34.6537H75.3913L88.4434 33.8354C89.0824 33.7998 89.6622 33.5508 90.1356 33.1238C90.6326 32.6731 90.9402 32.0683 91.0231 31.4042L91.1296 30.408C91.4017 30.7638 91.6857 31.1077 92.0289 31.416C93.5672 32.7799 95.6972 33.4796 98.3597 33.4796C98.7029 33.4796 99.0461 33.4796 99.4129 33.444C102.442 33.2543 104.963 32.3174 106.915 30.6689C107.909 29.8268 108.714 28.7951 109.306 27.6091C109.483 28.0954 109.696 28.5579 109.992 29.0085C110.773 30.1589 111.98 31.0484 113.554 31.6295C114.725 32.0564 116.11 32.2818 117.684 32.2818C118.062 32.2818 118.453 32.2818 118.855 32.2462C120.725 32.1276 122.452 31.7362 123.979 31.0721C125.588 30.3842 126.913 29.4236 127.943 28.2139C129.02 26.945 129.659 25.4625 129.848 23.814C130.026 22.2486 129.801 20.9084 129.197 19.8292C128.724 18.9753 128.014 18.2756 127.079 17.7419L127.683 17.7064C128.322 17.6708 128.925 17.398 129.375 16.9355C129.801 16.5085 130.061 15.963 130.132 15.2751C130.215 14.0299 129.86 12.7965 129.067 11.6342C128.322 10.5194 127.197 9.62998 125.718 8.98956C124.535 8.4796 123.162 8.21869 121.612 8.21869C121.304 8.21869 120.997 8.21869 120.677 8.24241C118.879 8.361 117.234 8.75237 115.778 9.42837C114.276 10.1281 113.033 11.0887 112.11 12.2628C111.933 12.4881 111.779 12.7253 111.625 12.9625L111.731 12.0375C111.814 11.2666 111.578 10.5432 111.069 10.0095C110.595 9.51138 109.945 9.22675 109.246 9.22675H109.128L105.282 9.46395C104.62 9.49952 104.016 9.77229 103.531 10.2348C103.046 10.6973 102.75 11.2903 102.679 11.9426L101.401 23.3278C101.318 24.0275 101.129 24.5375 100.821 24.8458C100.644 25.0237 100.324 25.2728 99.6022 25.3083H99.4011C99.0342 25.3083 98.8922 25.2372 98.8804 25.2253C98.8804 25.2253 98.7266 24.9763 98.8212 24.1461L100.099 12.7609C100.182 11.99 99.9572 11.2666 99.4366 10.7211C98.9632 10.223 98.3124 9.93833 97.6142 9.93833H97.4959L93.6027 10.1874C92.9164 10.2348 92.3129 10.5076 91.8396 10.9938C91.3899 11.4445 91.1177 12.0256 91.0467 12.6542L89.7687 24.0987C89.6978 24.6798 89.6859 25.2372 89.6978 25.7709C89.4256 25.676 89.1416 25.6167 88.8339 25.6167H88.7156L82.5504 26.0081L83.9231 13.7334C84.0059 12.9625 83.7811 12.2509 83.2723 11.7054C82.8108 11.2192 82.1599 10.9464 81.4618 10.9464H81.3434L77.3674 11.1954C76.7521 11.231 76.1723 11.4801 75.6871 11.9189C75.1901 12.3695 74.8825 12.9625 74.8115 13.6385L74.6103 15.4175C74.1843 14.6229 73.6518 14.0299 73.1311 13.6148C71.6993 12.4526 69.735 11.8596 67.321 11.8596C66.9896 11.8596 66.6465 11.8596 66.2915 11.8952L58.3987 12.3933C57.7242 12.4288 57.1088 12.7135 56.6237 13.1997C56.174 13.6504 55.9018 14.2315 55.8308 14.8601L53.7955 33.0645C53.7127 33.8117 53.9493 34.5232 54.4582 35.0688C54.9315 35.5787 55.5705 35.8515 56.2687 35.8515H56.3278ZM117.979 24.0275C117.979 24.0275 118.796 24.158 119.104 24.2054C118.997 24.2054 118.902 24.2054 118.808 24.2054C118.311 24.2054 118.133 24.1105 118.133 24.1105C118.062 24.075 118.015 24.0394 117.991 24.0157L117.979 24.0275ZM112.347 21.8928C112.631 22.13 112.927 22.3435 113.258 22.5332L111.424 22.6518C111.116 22.6755 110.82 22.7467 110.548 22.8653L110.879 19.936C111.27 20.8254 111.826 21.454 112.347 21.8928ZM66.1731 19.9241C66.1376 20.2206 66.0666 20.4222 65.9483 20.5289C65.8891 20.5764 65.7116 20.7305 65.2265 20.7661L64.3626 20.8254L64.4691 19.8529L65.9956 19.7581C65.9956 19.7581 66.1613 19.7581 66.1731 19.7581C66.1731 19.8055 66.1731 19.8648 66.1731 19.9241Z" fill="white"/>
<path d="M148.225 25.6641L152.059 25.4032L152.875 29.139L157.964 28.7951L175.228 27.6091L176.08 19.6513L167.087 20.268L168.708 5.0166L164.247 5.32495C162.105 5.46727 160.247 7.3055 160.011 9.51138L159.017 18.8567L155.739 5.90607L150.887 6.23814C149.124 6.35673 147.704 7.3648 147.03 8.96584L137.516 30.1945L146.592 29.5778L148.213 25.676L148.225 25.6641Z" fill="white"/>
<path d="M188.246 18.5958L191.287 18.3824L190.411 26.6485L198.742 26.0792L203.948 25.7235L205.57 21.8216L209.404 21.5607L210.22 25.2965L215.308 24.9526L224.101 24.3477C225.923 24.2291 227.426 23.9682 228.597 23.5887C230.277 23.0313 231.745 22.0826 232.964 20.8017L232.644 23.7548L240.916 23.1855L243.389 -0.0118408L238.928 0.296508C236.786 0.438823 235.259 1.79082 234.81 3.86624C234.75 3.79508 234.691 3.70021 234.62 3.62905C233.106 1.94499 230.881 1.0911 227.994 1.0911C227.639 1.0911 227.272 1.0911 226.905 1.12668L221.545 1.49433C219.213 1.7078 217.616 3.30884 217.356 5.68076L216.362 15.0261L213.084 2.07545L208.232 2.40751C206.469 2.52611 205.049 3.53417 204.374 5.13522L199.901 15.121L201.203 2.89376L192.872 3.46302L192.127 10.4483L189.074 10.6618L189.819 3.67649L185.299 3.98484C183.157 4.12715 181.299 5.97725 181.063 8.17127L179.016 27.4431L187.346 26.8738L188.222 18.5958H188.246ZM225.189 8.97772L226.763 8.87099C226.87 8.87099 226.976 8.87099 227.082 8.87099C227.426 8.87099 227.864 8.91842 228.053 9.12004C228.183 9.26235 228.597 9.92649 228.349 12.2272C227.982 15.6665 226.917 16.3425 224.799 16.4848L224.385 16.5086L225.189 8.98958V8.97772Z" fill="white"/>
<path d="M43.6877 60.0925C43.8889 57.6969 43.6049 55.4436 42.8357 53.3563C42.0665 51.269 40.8714 49.4664 39.2384 47.9839C37.6054 46.5015 35.5582 45.3629 33.1324 44.5921C30.6947 43.8212 27.9257 43.5128 24.8372 43.6907C21.8552 43.8686 19.1454 44.4379 16.6959 45.4104C14.2464 46.3829 12.1638 47.6163 10.4124 49.0987C8.67295 50.593 7.28845 52.3008 6.28262 54.2458C5.26496 56.1907 4.68513 58.195 4.50763 60.2586C4.25913 63.3302 4.66146 65.8207 5.70279 67.7301C6.75595 69.6395 8.12862 71.1694 9.82078 72.3198C11.5129 73.4702 13.3944 74.3596 15.4534 74.9882C17.5124 75.6167 19.4176 76.1741 21.1689 76.6604C22.9202 77.1466 24.3757 77.6566 25.5354 78.2021C26.6951 78.7477 27.2394 79.5541 27.1566 80.6096C27.0856 81.4517 26.5886 82.3055 25.6656 83.195C24.7426 84.0845 23.3344 84.5826 21.4648 84.6893C19.8081 84.7842 18.4709 84.3098 17.4651 83.2543C16.4474 82.1988 16.0096 80.835 16.1516 79.1628L1.96347 81.2263C1.75047 83.7406 2.0463 86.0532 2.83913 88.176C3.05213 88.7453 3.30063 89.3027 3.57279 89.8364L41.5577 85.4602C42.2677 83.8591 42.6937 82.2107 42.8357 80.5385C43.0842 77.4668 42.6819 75 41.6287 73.1144C40.5755 71.2287 39.2029 69.7107 37.5107 68.5603C36.2327 67.6945 34.8601 66.9948 33.3691 66.4493L20.3643 67.8013C19.9264 68.9872 18.7549 69.8648 17.4651 69.8648C15.9031 69.8648 14.7553 68.5959 14.8854 67.0304C15.0156 65.4649 16.4001 64.196 17.9621 64.196C19.0744 64.196 19.9856 64.8364 20.3643 65.7733L28.1861 64.955C27.4879 64.7652 26.8016 64.5873 26.1507 64.4213C24.3994 63.9706 22.9439 63.4844 21.7724 62.9626C20.6009 62.4526 20.0684 61.658 20.1513 60.6025C20.2223 59.7605 20.6601 58.9777 21.4529 58.2425C22.2576 57.5072 23.2871 57.0921 24.5651 57.0209C25.9969 56.9379 27.2157 57.353 28.2097 58.2662C29.2037 59.1794 29.6416 60.4721 29.4996 62.1443L43.6877 60.0807V60.0925ZM4.75612 91.7339C5.26496 92.4218 5.83296 93.074 6.47195 93.6789C8.10495 95.2206 10.1639 96.3829 12.6608 97.1537C15.1576 97.9246 17.9976 98.2211 21.2044 98.0314C24.2929 97.8535 27.1329 97.2368 29.7244 96.1694C32.3159 95.102 34.5524 93.7619 36.4457 92.1609C38.055 90.797 39.3685 89.279 40.4099 87.6305L4.75612 91.7458V91.7339Z" fill="url(#paint0_linear_5088_3985)"/>
<path d="M87.6487 67.6946C87.7789 66.1291 89.1634 64.8601 90.7254 64.8601C92.1809 64.8601 93.2932 65.9631 93.3169 67.3862L99.4938 69.2126L104.393 68.9161L106.783 39.7771L92.7015 40.5954L75.1764 73.2567L62.8816 42.315L48.8 43.1215L47.167 62.9863L59.9469 61.658C60.5031 61.5987 60.9883 62.002 61.0474 62.5594C61.1066 63.1168 60.7043 63.603 60.1481 63.6623L46.9895 65.038L45.3446 85.0333L49.723 84.5233C50.078 83.2069 51.3205 82.2225 52.705 82.2225C54.267 82.2225 55.4148 83.4915 55.2846 85.057C55.1426 86.6225 53.77 87.8914 52.208 87.8914C51.1903 87.8914 50.3383 87.3459 49.9123 86.5394L45.1671 87.085L44.4453 95.8729L58.9411 95.0428L61.0001 69.936L70.5377 94.3786L76.3361 94.0466L88.9504 70.2444C88.0747 69.77 87.5304 68.8212 87.6369 67.7183L87.6487 67.6946Z" fill="url(#paint1_linear_5088_3985)"/>
<path d="M199.167 48.5887C199.131 48.3278 199.096 48.0669 199.048 47.8179L198.764 48.0195L194.256 51.2334C194.303 51.4706 194.315 51.7197 194.291 51.9806C194.161 53.5461 192.777 54.815 191.215 54.815C189.653 54.815 188.505 53.5461 188.635 51.9806C188.777 50.4151 190.15 49.1461 191.712 49.1461C192.244 49.1461 192.729 49.3003 193.132 49.5494L198.516 45.7069C198.48 45.5883 198.445 45.4815 198.397 45.3629C197.64 43.2401 196.469 41.4018 194.895 39.8601C193.321 38.3183 191.368 37.1442 189.037 36.3615C186.706 35.5788 184.115 35.2704 181.239 35.4365L158.46 36.7529L154.188 88.7453L140.899 37.7847L124.333 38.7453L112.109 68.4298L126.368 67.5759L131.279 54.6016L134.083 67.1134L142.805 66.5916C143.349 66.556 143.834 66.983 143.87 67.5404C143.905 68.0978 143.479 68.5721 142.923 68.6077L134.521 69.1177L125.587 69.6514L111.257 70.5171L102.512 91.7576L104.216 70.9559L99.4354 71.2406C99.4354 71.2406 99.4 71.2406 99.3763 71.2406C99.2816 71.2406 99.1869 71.2287 99.0923 71.205L92.6668 69.3074C92.087 70.0427 91.1995 70.529 90.2291 70.529C90.0871 70.529 89.957 70.529 89.8268 70.5053L87.9453 93.3587L102.441 92.5285L117.517 91.639L121.209 81.843L136.947 80.9298L139.053 90.3819L154.377 89.4925L168.625 88.6623L169.997 71.9284L175.382 71.6201C176.316 73.6836 177.216 75.7116 178.091 77.7159C178.494 78.6054 180.269 82.9104 180.683 83.8354C180.825 83.7168 180.979 83.6101 181.144 83.5034C181.996 82.9222 182.979 82.4834 184.044 82.187C184.967 81.926 185.937 81.7719 186.943 81.7363C187.889 81.6888 188.765 81.7363 189.57 81.8312C190.351 81.9379 191.037 82.0802 191.664 82.27C192.173 82.4241 192.646 82.602 193.084 82.8155C193.664 82.4716 194.279 82.1869 194.93 81.9498C195.214 81.843 195.498 81.76 195.794 81.677L188.919 67.5285C190.647 66.5442 192.268 65.3108 193.759 63.8402C194.954 62.6068 196.114 61.0532 197.238 59.1794C198.35 57.3174 199.025 55.0404 199.238 52.3601C199.344 51.0555 199.32 49.8103 199.167 48.6125V48.5887ZM184.328 53.1903C184.221 54.4711 183.653 55.5859 182.612 56.5347C181.57 57.4834 180.221 58.0053 178.565 58.1001L171.11 58.5271L171.867 49.324L179.322 48.8971C180.979 48.8022 182.257 49.1699 183.144 50.0119C184.032 50.8539 184.434 51.9094 184.328 53.1903Z" fill="url(#paint2_linear_5088_3985)"/>
<path d="M199.888 34.381L198.989 45.3867L205.627 40.6547C205.781 40.5479 205.947 40.4886 206.136 40.4768L233.719 38.4014C234.276 38.3658 234.761 38.7809 234.796 39.3264C234.844 39.8838 234.418 40.37 233.873 40.4056L206.574 42.4692L199.072 47.8179L198.788 48.0195L198.74 48.6125L199.19 48.5887L212.822 47.806L210.183 80.574C210.301 80.7875 210.408 81.001 210.491 81.2263C210.716 81.2619 210.94 81.3093 211.165 81.3686C211.71 81.5109 212.242 81.7007 212.739 81.9497C213.118 81.7481 213.508 81.5821 213.899 81.4279C215.07 80.9773 216.348 80.7282 217.697 80.6689C219.153 80.5977 220.525 80.7756 221.768 81.1789C222.218 81.3212 222.644 81.4991 223.058 81.6888C223.543 81.4042 224.052 81.167 224.584 80.9654L227.318 46.9758L241.399 46.1575L242.571 31.926L199.912 34.3928L199.888 34.381Z" fill="url(#paint3_linear_5088_3985)"/>
<path d="M251.09 89.8838L247.611 92.1015C247.268 92.315 246.925 92.5285 246.582 92.7182C246.108 92.9791 245.599 93.2163 245.079 93.4061C244.57 93.5958 244.014 93.75 243.434 93.8568C242.89 93.9635 242.286 94.0228 241.647 94.0584C241.458 94.0584 241.257 94.0584 241.067 94.0584C238.641 94.0584 236.665 93.3468 235.186 91.9236C235.115 91.8525 235.044 91.7813 234.973 91.7102C234.938 91.7457 234.902 91.7695 234.867 91.805C233.896 92.7064 232.748 93.4179 231.459 93.9042C230.263 94.3667 228.95 94.6158 227.565 94.6869C227.352 94.6988 227.151 94.6988 226.938 94.6988C225.684 94.6988 224.512 94.5328 223.436 94.177C222.631 93.9161 221.885 93.5721 221.211 93.1333C220.465 93.6789 219.637 94.1295 218.738 94.4735C217.531 94.936 216.229 95.185 214.845 95.2562C214.632 95.2562 214.419 95.268 214.206 95.268C213.318 95.268 212.454 95.185 211.661 95.0071V95.0901L193.178 95.9085C192.208 96.1575 191.202 96.2998 190.196 96.3473C189.971 96.3473 189.758 96.3591 189.545 96.3591C188.279 96.3591 187.096 96.1812 186.019 95.8492C185.108 95.5645 184.279 95.1613 183.546 94.6751C183.451 94.7581 183.344 94.8411 183.238 94.9123C181.629 96.1457 179.51 96.8217 176.919 96.9284C176.659 96.9284 176.386 96.9402 176.138 96.9402C174.576 96.9402 173.144 96.7149 171.878 96.2761C170.411 95.7661 169.227 95.1257 168.245 94.2956L165.121 91.7102L167.89 87.7491C167.44 86.8833 167.109 85.7567 167.18 84.3454C167.239 83.0171 167.618 81.7837 168.328 80.7045C168.92 79.7913 169.701 78.9967 170.647 78.3681C171.487 77.7989 172.458 77.3601 173.523 77.0636C174.458 76.8027 175.463 76.6485 176.505 76.6011C176.812 76.5892 177.085 76.5773 177.357 76.5773C178.043 76.5773 178.682 76.6129 179.262 76.6959C180.078 76.8027 180.777 76.9568 181.439 77.1466C182.173 77.3719 182.847 77.6566 183.427 77.9886C183.557 78.0716 183.688 78.1309 183.806 78.2021C184.646 77.5854 185.581 77.0873 186.599 76.7197C187.806 76.2809 189.107 76.0318 190.48 75.9606C190.717 75.9488 190.953 75.9488 191.178 75.9488H191.237L191.415 71.8572L204.905 71.2642L204.739 75.3795C205.378 75.4151 205.993 75.4981 206.573 75.6641C207.437 75.8776 208.242 76.2453 208.952 76.7315C209.591 76.2927 210.301 75.9369 211.046 75.6641C212.241 75.2016 213.555 74.9407 214.939 74.8814C215.152 74.8814 215.353 74.8814 215.566 74.8814C216.821 74.8814 217.992 75.0475 219.069 75.4032C219.886 75.6642 220.631 76.0081 221.306 76.4469C222.063 75.8895 222.891 75.4388 223.779 75.1068C224.974 74.6561 226.287 74.3952 227.672 74.324C227.885 74.324 228.086 74.324 228.299 74.324C229.4 74.324 230.441 74.4545 231.411 74.7272L231.612 70.0901L245.363 69.4734L244.878 80.9417L245.86 80.3605L251.078 89.8957L251.09 89.8838Z" fill="#EDCF00"/>
<path d="M178.965 89.1129C178.977 88.8164 178.8 88.5911 178.433 88.4369C178.066 88.2827 177.604 88.1404 177.048 88.0218C176.504 87.9032 175.9 87.7728 175.238 87.6542C174.587 87.5356 173.983 87.3458 173.439 87.0968C172.895 86.8477 172.445 86.5275 172.078 86.1361C171.723 85.7329 171.558 85.2111 171.581 84.5588C171.605 84.0133 171.747 83.5389 172.019 83.1238C172.291 82.7087 172.658 82.3411 173.108 82.0327C173.557 81.7244 174.09 81.4872 174.705 81.3211C175.321 81.1432 175.983 81.0484 176.693 81.0128C177.451 80.9772 178.113 81.0128 178.681 81.0721C179.249 81.1432 179.734 81.25 180.16 81.3804C180.575 81.5109 180.93 81.6532 181.225 81.8192C181.521 81.9853 181.77 82.1395 181.983 82.2818L180.622 84.286C180.397 84.1674 180.137 84.037 179.841 83.9184C179.545 83.7879 179.237 83.6812 178.906 83.5745C178.575 83.4677 178.232 83.3966 177.877 83.3373C177.522 83.278 177.155 83.2543 176.8 83.278C176.149 83.3017 175.628 83.4084 175.214 83.5863C174.8 83.7642 174.599 84.0251 174.575 84.3572C174.575 84.6181 174.741 84.8197 175.119 84.962C175.486 85.1043 175.948 85.2348 176.504 85.3534C177.048 85.472 177.652 85.5906 178.314 85.721C178.965 85.8515 179.569 86.0294 180.113 86.2666C180.657 86.4919 181.107 86.8121 181.474 87.2035C181.829 87.5949 182.006 88.1167 181.971 88.7571C181.924 89.86 181.462 90.7614 180.575 91.4255C179.687 92.1015 178.409 92.4692 176.729 92.5522C175.403 92.6115 174.267 92.481 173.321 92.1489C172.374 91.8169 171.617 91.4255 171.049 90.9511L172.528 88.8283C172.717 88.9824 172.978 89.1485 173.309 89.3264C173.628 89.5043 173.995 89.6703 174.409 89.8126C174.824 89.9549 175.261 90.0735 175.723 90.1565C176.184 90.2395 176.658 90.2751 177.119 90.2633C177.616 90.2396 178.042 90.1447 178.397 89.9668C178.764 89.7889 178.953 89.5161 178.965 89.1366V89.1129Z" fill="#171717"/>
<path d="M194.941 90.37C194.29 90.8444 193.533 91.2239 192.681 91.4848C191.817 91.7457 190.929 91.8999 190.006 91.9473C189.001 91.9948 188.113 91.888 187.356 91.6508C186.587 91.4137 185.948 91.046 185.439 90.5716C184.93 90.0972 184.551 89.5043 184.303 88.7927C184.054 88.093 183.948 87.3102 183.983 86.4445C184.019 85.5194 184.22 84.7011 184.575 83.9777C184.93 83.2543 185.403 82.6257 186.007 82.1039C186.61 81.5821 187.308 81.1788 188.101 80.8823C188.894 80.5977 189.758 80.4198 190.681 80.3842C191.545 80.3487 192.349 80.408 193.095 80.5621C193.84 80.7163 194.408 80.8705 194.811 81.0365L194.645 84.8909L192.101 85.0095L192.184 82.9934C191.71 82.9103 191.237 82.8866 190.752 82.8985C190.314 82.9222 189.888 82.9934 189.462 83.1475C189.036 83.2898 188.646 83.5033 188.302 83.7879C187.959 84.0726 187.675 84.4284 187.45 84.8434C187.226 85.2585 187.095 85.7566 187.072 86.3259C187.048 86.7884 187.119 87.2154 187.273 87.6067C187.427 87.9981 187.652 88.3302 187.947 88.6029C188.243 88.8757 188.61 89.0892 189.06 89.2434C189.509 89.3857 190.006 89.4568 190.563 89.4212C191.438 89.3857 192.172 89.2315 192.74 88.9706C193.308 88.7097 193.746 88.4843 194.03 88.3064L194.929 90.3819L194.941 90.37Z" fill="#171717"/>
<path d="M195.65 76.0911L200.324 75.8776L200.087 81.4753H200.182C200.572 80.9891 201.081 80.5977 201.708 80.2894C202.335 79.981 203.069 79.815 203.897 79.7794C204.489 79.7557 205.022 79.8031 205.507 79.9217C205.992 80.0403 206.406 80.2656 206.749 80.5858C207.092 80.9061 207.353 81.3449 207.518 81.9141C207.696 82.4834 207.767 83.1831 207.731 84.037L207.436 90.8444L204.43 90.9748L204.69 84.7604C204.726 83.871 204.56 83.2424 204.17 82.8629C203.791 82.4834 203.27 82.3173 202.619 82.3411C202.051 82.3648 201.519 82.5545 201.022 82.8985C200.525 83.2543 200.17 83.6812 199.945 84.203L199.649 91.1883L196.644 91.3188L197.2 78.4037L195.531 78.4748L195.638 76.0673L195.65 76.0911Z" fill="#171717"/>
<path d="M208.762 85.3416C208.797 84.4165 208.987 83.5982 209.306 82.8748C209.626 82.1513 210.075 81.5228 210.631 81.001C211.188 80.4791 211.85 80.0759 212.608 79.7913C213.365 79.5066 214.205 79.3406 215.14 79.2932C216.11 79.2457 216.974 79.3525 217.731 79.5897C218.489 79.8387 219.116 80.1945 219.613 80.6689C220.122 81.1433 220.489 81.7362 220.725 82.4478C220.962 83.1475 221.068 83.9303 221.033 84.796C220.997 85.7092 220.808 86.5394 220.489 87.2628C220.169 87.9862 219.719 88.6148 219.163 89.1366C218.607 89.6585 217.944 90.0617 217.187 90.3463C216.43 90.6309 215.59 90.797 214.655 90.8444C213.684 90.8918 212.821 90.7851 212.075 90.5479C211.318 90.3107 210.691 89.9431 210.194 89.4687C209.697 88.9943 209.318 88.4013 209.081 87.6898C208.845 86.99 208.738 86.2073 208.774 85.3416H208.762ZM211.862 85.1992C211.838 85.6855 211.898 86.1243 212.016 86.5275C212.134 86.9307 212.324 87.2747 212.572 87.5712C212.821 87.8676 213.128 88.093 213.495 88.2353C213.862 88.3895 214.276 88.4488 214.761 88.425C215.661 88.3895 216.394 88.0811 216.986 87.5119C217.578 86.9426 217.885 86.0768 217.944 84.9146C217.992 83.9065 217.755 83.112 217.258 82.5071C216.761 81.9141 216.027 81.6295 215.057 81.6769C214.631 81.7007 214.217 81.7718 213.85 81.9141C213.471 82.0565 213.14 82.2699 212.868 82.5546C212.584 82.8392 212.359 83.2068 212.182 83.6338C212.004 84.0607 211.909 84.5825 211.886 85.1755L211.862 85.1992Z" fill="#171717"/>
<path d="M221.494 84.7723C221.53 83.8472 221.719 83.0289 222.038 82.3055C222.358 81.5821 222.808 80.9535 223.364 80.4317C223.92 79.9099 224.583 79.5066 225.34 79.222C226.097 78.9374 226.937 78.7713 227.872 78.7239C228.843 78.6765 229.706 78.7832 230.464 79.0204C231.221 79.2694 231.836 79.6252 232.345 80.0996C232.854 80.5859 233.221 81.167 233.458 81.8785C233.694 82.5783 233.801 83.361 233.765 84.2267C233.73 85.1399 233.54 85.9701 233.221 86.6935C232.901 87.417 232.452 88.0455 231.896 88.5674C231.339 89.0892 230.677 89.4924 229.919 89.777C229.162 90.0617 228.322 90.2277 227.387 90.2751C226.417 90.3226 225.553 90.2158 224.807 89.9786C224.05 89.7415 223.423 89.3738 222.926 88.8994C222.429 88.425 222.05 87.8321 221.814 87.1205C221.577 86.4208 221.47 85.638 221.506 84.7723H221.494ZM224.594 84.63C224.571 85.1162 224.63 85.555 224.748 85.9582C224.867 86.3615 225.056 86.7054 225.304 87.0019C225.553 87.2984 225.861 87.5237 226.227 87.666C226.594 87.8202 227.008 87.8795 227.494 87.8558C228.393 87.8202 229.127 87.5118 229.718 86.9426C230.31 86.3733 230.618 85.5076 230.677 84.3453C230.724 83.3373 230.487 82.5427 229.99 81.9378C229.493 81.3449 228.76 81.0602 227.789 81.1077C227.363 81.1314 226.949 81.2025 226.582 81.3449C226.204 81.4872 225.872 81.7007 225.6 81.9853C225.316 82.2699 225.091 82.6376 224.914 83.0645C224.736 83.4915 224.642 84.0133 224.618 84.6062L224.594 84.63Z" fill="#171717"/>
<path d="M235.849 74.3003L240.783 74.075L240.345 84.1793C240.298 85.306 240.404 86.0769 240.688 86.5038C240.972 86.9307 241.422 87.1205 242.073 87.0968C242.546 87.0731 242.949 87.0138 243.256 86.907C243.564 86.8003 243.883 86.6461 244.203 86.4564L245.256 88.3776C244.984 88.5436 244.724 88.7097 244.451 88.8639C244.179 89.018 243.895 89.1485 243.599 89.2552C243.304 89.362 242.984 89.445 242.629 89.5161C242.286 89.5873 241.884 89.6229 241.458 89.6466C240.002 89.7059 238.937 89.4094 238.239 88.7453C237.541 88.0811 237.221 87.0968 237.28 85.8159L237.671 76.6248L235.754 76.7078L235.86 74.3003H235.849Z" fill="#171717"/>
<path d="M28.0687 16.1883L24.9092 16.3899C24.4477 16.4137 24.0809 16.6509 23.8324 17.0659L18.034 26.0081L14.2001 17.6708C14.0344 17.2676 13.7267 17.0897 13.2652 17.1134L10.1057 17.315C9.90457 17.3268 9.71524 17.4099 9.5614 17.5522C9.40757 17.7064 9.3129 17.8842 9.28924 18.0859L7.25391 36.2903C7.23024 36.4919 7.27758 36.658 7.40774 36.7884C7.53791 36.907 7.70357 36.9663 7.90474 36.9545L11.4192 36.7291C11.6204 36.7173 11.7979 36.6461 11.9517 36.5038C12.1056 36.3615 12.2002 36.1954 12.2239 35.982L13.3717 25.7709L15.7384 31.1433C15.9751 31.5583 16.2709 31.7481 16.6496 31.7244L18.1642 31.6295C18.5784 31.6058 18.9215 31.3686 19.2174 30.9179L22.862 25.1779L21.7142 35.389C21.6905 35.5787 21.7497 35.7329 21.868 35.8634C21.9864 35.9938 22.152 36.0531 22.3295 36.0413L25.8795 35.8159C26.0807 35.8041 26.2582 35.7329 26.412 35.5906C26.5659 35.4483 26.6605 35.2823 26.6724 35.0688L28.7077 16.8643C28.7314 16.6627 28.684 16.4848 28.5539 16.3544C28.4355 16.2239 28.2699 16.1646 28.0569 16.1765L28.0687 16.1883Z" fill="#171717"/>
<path d="M43.9615 16.0104C43.8314 15.4768 43.5 15.2277 42.932 15.2633L38.5774 15.5361C38.0212 15.5716 37.6189 15.8681 37.3704 16.4137L28.8504 34.8079C28.8504 34.8079 28.8031 34.9502 28.7912 35.0569C28.7794 35.2111 28.8149 35.3416 28.9214 35.4483C29.0279 35.5669 29.1581 35.6143 29.3119 35.6025L32.9447 35.3771C33.3944 35.3534 33.7257 35.1281 33.9624 34.7011L35.2759 31.9141L42.5889 31.4635L43.287 34.12C43.429 34.5232 43.7249 34.7011 44.1627 34.6774L47.7955 34.4521C47.9494 34.4521 48.0914 34.3691 48.2215 34.2505C48.3517 34.12 48.4345 33.9777 48.4464 33.8354C48.4582 33.7287 48.4582 33.6338 48.4464 33.5863L43.9497 16.0104H43.9615ZM36.9089 27.6565L40.1985 20.351L41.8789 27.3482L36.9089 27.6565Z" fill="#171717"/>
<path d="M71.9943 15.0972C70.74 14.0773 68.9059 13.6504 66.48 13.7927L58.5754 14.2908C58.3742 14.3027 58.1967 14.3857 58.0429 14.528C57.889 14.6703 57.818 14.8482 57.7944 15.0617L55.759 33.2661C55.7354 33.4559 55.7945 33.6101 55.9129 33.7405C56.0312 33.871 56.1969 33.9303 56.3744 33.9184L60.3977 33.6694C60.5989 33.6575 60.7764 33.5745 60.9184 33.4322C61.0604 33.2898 61.1432 33.112 61.1669 32.9341L61.8414 26.8738L65.0245 26.6722C67.4504 26.518 69.4028 25.8776 70.9057 24.7272C72.3967 23.5887 73.2723 21.9521 73.509 19.8174C73.7457 17.6826 73.2368 16.1053 71.9825 15.0972H71.9943ZM68.0775 20.1376C67.9947 20.9203 67.6989 21.5251 67.2255 21.9639C66.7404 22.3909 66.1132 22.6281 65.3559 22.6755L62.2319 22.8653L62.7762 18.0384L65.9002 17.8487C66.7404 17.8012 67.332 17.9791 67.687 18.4061C68.042 18.833 68.1722 19.4023 68.0894 20.1376H68.0775Z" fill="#171717"/>
<path d="M88.8213 27.538L80.4433 28.0598L82.0763 13.5199C82.0999 13.3183 82.0526 13.1523 81.9343 13.0218C81.8159 12.9032 81.6621 12.8439 81.4491 12.8558L77.5441 13.1048C77.3548 13.1048 77.1891 13.1879 77.0353 13.3302C76.8815 13.4725 76.7868 13.6385 76.775 13.852L74.7278 32.092C74.7041 32.2818 74.7633 32.436 74.8816 32.5664C75 32.6969 75.1656 32.7562 75.3431 32.7443L88.3361 31.9379C88.5373 31.926 88.7266 31.8549 88.8804 31.7125C89.0343 31.5702 89.1289 31.4042 89.1408 31.1907L89.4721 28.214C89.4958 28.0123 89.4484 27.8345 89.3183 27.704C89.1999 27.5735 89.0343 27.5142 88.8213 27.5261V27.538Z" fill="#171717"/>
<path d="M109.222 11.1361L105.424 11.3733C105.222 11.3852 105.045 11.4682 104.879 11.6105C104.725 11.7647 104.631 11.9426 104.607 12.1442L103.329 23.5413C103.199 24.6798 102.832 25.5693 102.217 26.186C101.601 26.8145 100.785 27.1584 99.7554 27.2177C98.7259 27.277 97.9804 27.0398 97.4952 26.4943C97.0101 25.9488 96.8326 25.0949 96.9627 23.9326L98.2407 12.5356C98.2644 12.334 98.2171 12.1561 98.0869 12.0256C97.9567 11.8952 97.8029 11.8359 97.5899 11.8477L93.7677 12.0849C93.5666 12.0968 93.3891 12.1798 93.2471 12.3221C93.1051 12.4763 93.0222 12.6423 92.9986 12.8558L91.7206 24.3003C91.4366 26.8857 91.9691 28.7713 93.3181 29.9692C94.6671 31.167 96.6669 31.6769 99.3175 31.5228C101.945 31.3567 104.075 30.5859 105.708 29.1983C107.341 27.8107 108.299 25.8302 108.595 23.2566L109.873 11.8121C109.897 11.6105 109.849 11.4326 109.719 11.3022C109.601 11.1717 109.435 11.1124 109.222 11.1243V11.1361Z" fill="#171717"/>
<path d="M124.983 10.7211C123.847 10.223 122.45 10.0332 120.817 10.1281C119.255 10.223 117.847 10.5669 116.617 11.148C115.374 11.7291 114.38 12.4882 113.646 13.4369C112.901 14.3857 112.463 15.4412 112.333 16.5916C112.144 18.2994 112.558 19.5683 113.564 20.4104C114.581 21.2524 116.191 21.8335 118.392 22.1419C119.516 22.3079 120.38 22.4739 120.971 22.64C121.563 22.806 121.989 22.9957 122.237 23.2329C122.486 23.4701 122.592 23.7785 122.545 24.1698C122.486 24.7154 122.166 25.1542 121.598 25.4981C121.019 25.842 120.238 26.0437 119.232 26.103C118.38 26.1623 117.705 26.0555 117.232 25.7946C116.759 25.5337 116.415 25.1898 116.226 24.751C116.084 24.5731 115.942 24.4545 115.812 24.3833C115.682 24.3122 115.504 24.2884 115.279 24.3003L111.564 24.5375C111.398 24.5375 111.244 24.6087 111.114 24.7272C110.984 24.8458 110.901 24.9882 110.889 25.1542C110.818 26.1623 111.055 27.0754 111.611 27.8938C112.167 28.7121 113.043 29.3406 114.262 29.7913C115.469 30.2301 116.972 30.408 118.782 30.2894C120.439 30.1827 121.942 29.8506 123.279 29.2695C124.616 28.6883 125.705 27.9175 126.533 26.9331C127.361 25.9488 127.846 24.8221 127.988 23.5532C128.119 22.3909 127.988 21.454 127.574 20.7187C127.16 19.9953 126.474 19.426 125.492 19.0109C124.509 18.5958 123.16 18.2875 121.445 18.074C119.954 17.8487 118.948 17.5996 118.415 17.3269C117.895 17.0541 117.658 16.6509 117.717 16.1053C117.776 15.5598 118.037 15.1328 118.498 14.8245C118.96 14.5161 119.575 14.3383 120.356 14.2908C121.042 14.2434 121.61 14.3501 122.036 14.5873C122.474 14.8245 122.723 15.1447 122.794 15.5242C122.983 15.8444 123.279 15.9986 123.693 15.9749L127.61 15.7258C127.775 15.7258 127.929 15.6428 128.048 15.5124C128.178 15.3819 128.249 15.2396 128.261 15.0617C128.32 14.2434 128.071 13.4251 127.527 12.6186C126.983 11.8122 126.142 11.1599 124.995 10.6618L124.983 10.7211Z" fill="#171717"/>
<path d="M151.029 8.14755C149.976 8.21871 149.195 8.77611 148.781 9.7486L140.568 28.0598L145.302 27.7396L146.923 23.8378L153.585 23.3871L154.401 27.1229L159.076 26.8027L154.295 7.93408L151.029 8.15941V8.14755ZM148.544 19.936L151.325 13.2472L152.733 19.6513L148.556 19.936H148.544Z" fill="#171717"/>
<path d="M166.578 7.09204L164.389 7.24622C163.17 7.32923 162.058 8.44403 161.928 9.73673L160.117 26.7434L173.524 25.8302L173.962 21.7386L164.969 22.3553L166.59 7.1039L166.578 7.09204Z" fill="#171717"/>
<path d="M194.611 5.25378L193.865 12.2391L186.954 12.7135L187.7 5.72817L185.452 5.88234C184.233 5.96536 183.12 7.08016 182.978 8.37285L181.168 25.3795L185.629 25.0711L186.505 16.805L193.415 16.3306L192.54 24.5968L197.001 24.2884L199.06 4.94543L194.599 5.25378H194.611Z" fill="#171717"/>
<path d="M208.373 4.31693C207.32 4.38808 206.539 4.94548 206.124 5.91797L197.912 24.2292L202.645 23.909L204.267 20.0072L210.929 19.5565L211.745 23.2923L216.419 22.9721L211.639 4.10345L208.373 4.32879V4.31693ZM205.888 16.1054L208.669 9.41655L210.077 15.8207L205.9 16.1054H205.888Z" fill="#171717"/>
<path d="M227.046 3.03608L221.733 3.40373C220.301 3.53418 219.425 4.41179 219.271 5.89424L217.461 22.9009L223.993 22.4502C225.661 22.3316 227.01 22.1063 228.016 21.7861C231.708 20.5645 234.229 16.9474 234.738 12.1205C235.424 5.70449 232.832 2.65657 227.046 3.04794V3.03608ZM230.241 12.417C229.815 16.4256 228.277 18.1452 224.928 18.3705L222.242 18.5484L223.449 7.16322L226.62 6.94974C229.543 6.74813 230.655 8.43219 230.241 12.4052V12.417Z" fill="#171717"/>
<path d="M239.081 2.21775C237.649 2.31263 236.773 3.2021 236.607 4.70827L234.797 21.7149L239.211 21.4184L241.27 2.07544L239.081 2.22961V2.21775Z" fill="#171717"/>
</g>
<defs>
<linearGradient id="paint0_linear_5088_3985" x1="10.3414" y1="46.4066" x2="62.1515" y2="146.882" gradientUnits="userSpaceOnUse">
<stop stop-color="#43C146"/>
<stop offset="1" stop-color="#006D42"/>
</linearGradient>
<linearGradient id="paint1_linear_5088_3985" x1="53.273" y1="24.2766" x2="105.071" y2="124.752" gradientUnits="userSpaceOnUse">
<stop stop-color="#43C146"/>
<stop offset="1" stop-color="#006D42"/>
</linearGradient>
<linearGradient id="paint2_linear_5088_3985" x1="106.121" y1="-2.97673" x2="157.919" y2="97.4991" gradientUnits="userSpaceOnUse">
<stop stop-color="#43C146"/>
<stop offset="1" stop-color="#006D42"/>
</linearGradient>
<linearGradient id="paint3_linear_5088_3985" x1="177.144" y1="-39.5873" x2="228.943" y2="60.8767" gradientUnits="userSpaceOnUse">
<stop stop-color="#43C146"/>
<stop offset="1" stop-color="#006D42"/>
</linearGradient>
<clipPath id="clip0_5088_3985">
<rect width="253.623" height="100" fill="white"/>
</clipPath>
</defs>
</svg>
