<svg width="20" height="18" viewBox="0 0 20 18" fill="none" xmlns="http://www.w3.org/2000/svg">
<path d="M19.403 7.76336L12.403 0.763359C11.7263 0.0866927 10.6063 0.0866927 9.92968 0.763359C9.25301 1.44003 9.25301 2.56002 9.92968 3.23669L13.943 7.25003H1.83301C0.876341 7.25003 0.0830078 8.04336 0.0830078 9.00002C0.0830078 9.95669 0.876341 10.75 1.83301 10.75H13.943L9.92968 14.7634C9.25301 15.44 9.25301 16.56 9.92968 17.2367C10.2797 17.5867 10.723 17.75 11.1663 17.75C11.6097 17.75 12.053 17.5867 12.403 17.2367L19.403 10.2367C20.0797 9.56003 20.0797 8.44003 19.403 7.76336Z" fill="#667085"/>
</svg>
