<svg width="25" height="25" viewBox="0 0 25 25" fill="none" xmlns="http://www.w3.org/2000/svg">
<path d="M23.0782 0.333313H11.8082C10.8515 0.333313 10.0582 1.12665 10.0582 2.08331C10.0582 3.03998 10.8515 3.83331 11.8082 3.83331H18.8548L0.841484 21.8466C0.164818 22.5233 0.164818 23.6433 0.841484 24.32C1.19148 24.67 1.63482 24.8333 2.07815 24.8333C2.52148 24.8333 2.96482 24.67 3.31482 24.32L21.3282 6.30665V13.3533C21.3282 14.31 22.1215 15.1033 23.0782 15.1033C24.0348 15.1033 24.8282 14.31 24.8282 13.3533V2.08331C24.8282 1.12665 24.0348 0.333313 23.0782 0.333313Z" fill="#2B2B2B"/>
</svg>
