<svg width="25" height="24" viewBox="0 0 25 24" fill="none" xmlns="http://www.w3.org/2000/svg">
<path d="M3.2468 19.01L3.2268 19.03C2.9568 18.44 2.7868 17.77 2.7168 17.03C2.7868 17.76 2.9768 18.42 3.2468 19.01Z" fill="white"/>
<path d="M9.66516 10.38C10.9796 10.38 12.0452 9.31443 12.0452 8C12.0452 6.68556 10.9796 5.62 9.66516 5.62C8.35072 5.62 7.28516 6.68556 7.28516 8C7.28516 9.31443 8.35072 10.38 9.66516 10.38Z" fill="white"/>
<path d="M16.856 2H8.47602C4.83602 2 2.66602 4.17 2.66602 7.81V16.19C2.66602 17.28 2.85602 18.23 3.22602 19.03C4.08602 20.93 5.92602 22 8.47602 22H16.856C20.496 22 22.666 19.83 22.666 16.19V13.9V7.81C22.666 4.17 20.496 2 16.856 2ZM21.036 12.5C20.256 11.83 18.996 11.83 18.216 12.5L14.056 16.07C13.276 16.74 12.016 16.74 11.236 16.07L10.896 15.79C10.186 15.17 9.05602 15.11 8.25602 15.65L4.51602 18.16C4.29602 17.6 4.16602 16.95 4.16602 16.19V7.81C4.16602 4.99 5.65602 3.5 8.47602 3.5H16.856C19.676 3.5 21.166 4.99 21.166 7.81V12.61L21.036 12.5Z" fill="white"/>
</svg>
