<svg width="18" height="20" viewBox="0 0 18 20" fill="none" xmlns="http://www.w3.org/2000/svg">
<path d="M15.1253 4.00883C14.0462 3.30649 13.268 2.18226 13.0248 0.872401C12.9726 0.58946 12.9434 0.297991 12.9434 0H9.50004L9.49451 13.7798C9.43674 15.3229 8.16468 16.5616 6.60576 16.5616C6.12095 16.5616 5.66478 16.4407 5.26286 16.2295C4.34148 15.7454 3.71097 14.7811 3.71097 13.6715C3.71097 12.0777 5.00966 10.7808 6.60526 10.7808C6.90317 10.7808 7.18903 10.83 7.45932 10.9143V7.40412C7.17949 7.36599 6.89513 7.34241 6.60526 7.34241C3.11062 7.34241 0.267578 10.1814 0.267578 13.6715C0.267578 15.8126 1.33868 17.7074 2.97346 18.8532C4.00286 19.5751 5.25533 20 6.60576 20C10.1004 20 12.9434 17.1611 12.9434 13.6715V6.68372C14.2939 7.65144 15.9487 8.22184 17.7342 8.22184V4.7834C16.7727 4.7834 15.8769 4.49796 15.1253 4.00883Z" fill="white"/>
</svg>
