<svg width="22" height="24" viewBox="0 0 22 24" fill="none" xmlns="http://www.w3.org/2000/svg">
<g clip-path="url(#clip0_5102_44049)">
<path d="M17.9484 4.8106C16.6535 3.96779 15.7196 2.61871 15.4278 1.04688C15.3651 0.707352 15.3302 0.357589 15.3302 0H11.1981L11.1915 16.5358C11.1221 18.3875 9.59566 19.8739 7.72496 19.8739C7.14319 19.8739 6.59578 19.7288 6.11348 19.4754C5.00782 18.8944 4.25122 17.7374 4.25122 16.4057C4.25122 14.4932 5.80964 12.937 7.72435 12.937C8.08185 12.937 8.42489 12.996 8.74923 13.0971V8.88494C8.41343 8.83919 8.07221 8.8109 7.72435 8.8109C3.53079 8.8109 0.119141 12.2176 0.119141 16.4057C0.119141 18.9751 1.40446 21.2489 3.3662 22.6238C4.60148 23.4901 6.10444 24 7.72496 24C11.9185 24 15.3302 20.5933 15.3302 16.4057V8.02047C16.9507 9.18173 18.9365 9.8662 21.0791 9.8662V5.74009C19.9252 5.74009 18.8503 5.39755 17.9484 4.8106Z" fill="#121416"/>
</g>
<defs>
<clipPath id="clip0_5102_44049">
<rect width="20.96" height="24" fill="white" transform="translate(0.119141)"/>
</clipPath>
</defs>
</svg>
