<svg width="33" height="32" viewBox="0 0 33 32" fill="none" xmlns="http://www.w3.org/2000/svg">
<path d="M27.3796 9.12C23.5396 3.2 15.6996 1.44 9.61965 5.12C3.69965 8.8 1.77965 16.8 5.61965 22.72L5.93965 23.2L4.65965 28L9.45965 26.72L9.93965 27.04C12.0196 28.16 14.2596 28.8 16.4996 28.8C18.8996 28.8 21.2996 28.16 23.3796 26.88C29.2996 23.04 31.0596 15.2 27.3796 9.12ZM24.0196 21.44C23.3796 22.4 22.5796 23.04 21.4596 23.2C20.8196 23.2 20.0196 23.52 16.8196 22.24C14.0996 20.96 11.8596 18.88 10.2596 16.48C9.29965 15.36 8.81965 13.92 8.65965 12.48C8.65965 11.2 9.13965 10.08 9.93965 9.28C10.2596 8.96 10.5796 8.8 10.8996 8.8H11.6996C12.0196 8.8 12.3396 8.8 12.4996 9.44C12.8196 10.24 13.6196 12.16 13.6196 12.32C13.7796 12.48 13.7796 12.8 13.6196 12.96C13.7796 13.28 13.6196 13.6 13.4596 13.76C13.2996 13.92 13.1396 14.24 12.9796 14.4C12.6596 14.56 12.4996 14.88 12.6596 15.2C13.2996 16.16 14.0996 17.12 14.8996 17.92C15.8596 18.72 16.8196 19.36 17.9396 19.84C18.2596 20 18.5796 20 18.7396 19.68C18.8996 19.36 19.6996 18.56 20.0196 18.24C20.3396 17.92 20.4996 17.92 20.8196 18.08L23.3796 19.36C23.6996 19.52 24.0196 19.68 24.1796 19.84C24.3396 20.32 24.3396 20.96 24.0196 21.44Z" fill="#101828"/>
</svg>
