<svg width="25" height="24" viewBox="0 0 25 24" fill="none" xmlns="http://www.w3.org/2000/svg">
<g clip-path="url(#clip0_5102_44046)">
<path d="M24.1613 7.19981C24.1613 7.19981 23.927 5.54512 23.2051 4.81855C22.291 3.8623 21.2691 3.85762 20.8004 3.80137C17.4441 3.55762 12.4051 3.55762 12.4051 3.55762H12.3957C12.3957 3.55762 7.35664 3.55762 4.00039 3.80137C3.53164 3.85762 2.50977 3.8623 1.5957 4.81855C0.873828 5.54512 0.644141 7.19981 0.644141 7.19981C0.644141 7.19981 0.400391 9.14512 0.400391 11.0857V12.9045C0.400391 14.8451 0.639453 16.7904 0.639453 16.7904C0.639453 16.7904 0.873828 18.4451 1.59102 19.1717C2.50508 20.1279 3.70508 20.0951 4.23945 20.1982C6.16133 20.3811 12.4004 20.4373 12.4004 20.4373C12.4004 20.4373 17.4441 20.4279 20.8004 20.1889C21.2691 20.1326 22.291 20.1279 23.2051 19.1717C23.927 18.4451 24.1613 16.7904 24.1613 16.7904C24.1613 16.7904 24.4004 14.8498 24.4004 12.9045V11.0857C24.4004 9.14512 24.1613 7.19981 24.1613 7.19981ZM9.9207 15.1123V8.36699L16.4035 11.7514L9.9207 15.1123Z" fill="#121416"/>
</g>
<defs>
<clipPath id="clip0_5102_44046">
<rect width="24" height="24" fill="white" transform="translate(0.400391)"/>
</clipPath>
</defs>
</svg>
