<svg xmlns="http://www.w3.org/2000/svg" xmlns:xlink="http://www.w3.org/1999/xlink" width="130" zoomAndPan="magnify" viewBox="0 0 97.5 97.499997" height="130" preserveAspectRatio="xMidYMid meet" version="1.0"><defs><filter x="0%" y="0%" width="100%" height="100%" id="26e3d7a685"><feColorMatrix values="0 0 0 0 1 0 0 0 0 1 0 0 0 0 1 0 0 0 1 0" color-interpolation-filters="sRGB"/></filter><clipPath id="aec7c94e78"><path d="M 0 0 L 97.003906 0 L 97.003906 97.003906 L 0 97.003906 Z M 0 0 " clip-rule="nonzero"/></clipPath><mask id="5538579dbe"><g filter="url(#26e3d7a685)"><rect x="-9.75" width="117" fill="#000000" y="-9.75" height="116.999996" fill-opacity="0.5"/></g></mask><clipPath id="bd6d12959f"><path d="M 0.00390625 0 L 97 0 L 97 97.003906 L 0.00390625 97.003906 Z M 0.00390625 0 " clip-rule="nonzero"/></clipPath><clipPath id="7846a86f27"><path d="M 97 17.90625 L 97 79.09375 C 97 88.984375 88.980469 97.003906 79.09375 97.003906 L 17.910156 97.003906 C 8.019531 97.003906 0.00390625 88.984375 0.00390625 79.09375 L 0.00390625 17.90625 C 0.00390625 8.015625 8.019531 0 17.910156 0 L 79.09375 0 C 88.980469 0 97 8.015625 97 17.90625 Z M 97 17.90625 " clip-rule="nonzero"/></clipPath><clipPath id="467b8b176e"><rect x="0" width="98" y="0" height="98"/></clipPath></defs><g clip-path="url(#aec7c94e78)"><g mask="url(#5538579dbe)"><g transform="matrix(1, 0, 0, 1, 0, 0)"><g clip-path="url(#467b8b176e)"><g clip-path="url(#bd6d12959f)"><g clip-path="url(#7846a86f27)"><path stroke-linecap="butt" transform="matrix(0.746173, 0, 0, 0.746173, 0.00329696, 0)" fill="none" stroke-linejoin="miter" d="M 129.99218 23.997439 L 129.99218 105.99916 C 129.99218 119.25429 119.244636 130.001834 105.994741 130.001834 L 23.998256 130.001834 C 10.743126 130.001834 0.000816546 119.25429 0.000816546 105.99916 L 0.000816546 23.997439 C 0.000816546 10.742309 10.743126 0 23.998256 0 L 105.994741 0 C 119.244636 0 129.99218 10.742309 129.99218 23.997439 Z M 129.99218 23.997439 " stroke="#e7f8f0" stroke-width="2" stroke-opacity="1" stroke-miterlimit="4"/></g></g></g></g></g></g></svg>