<svg xmlns="http://www.w3.org/2000/svg" xmlns:xlink="http://www.w3.org/1999/xlink" width="130" zoomAndPan="magnify" viewBox="0 0 97.5 97.499997" height="130" preserveAspectRatio="xMidYMid meet" version="1.0"><defs><clipPath id="a6aa747a84"><path d="M 0 0.976562 L 96 0.976562 L 96 96.457031 L 0 96.457031 Z M 0 0.976562 " clip-rule="nonzero"/></clipPath><clipPath id="03a161a706"><path d="M 95.976562 18.882812 L 95.976562 78.347656 C 95.976562 88.238281 87.960938 96.253906 78.070312 96.253906 L 17.90625 96.253906 C 8.015625 96.253906 0 88.238281 0 78.347656 L 0 18.882812 C 0 8.992188 8.015625 0.976562 17.90625 0.976562 L 78.070312 0.976562 C 87.960938 0.976562 95.976562 8.992188 95.976562 18.882812 Z M 95.976562 18.882812 " clip-rule="nonzero"/></clipPath></defs><g clip-path="url(#a6aa747a84)"><g clip-path="url(#03a161a706)"><path stroke-linecap="butt" transform="matrix(0.746173, 0, 0, 0.746173, 0.000287876, 0.976867)" fill="none" stroke-linejoin="miter" d="M 128.624624 23.997029 L 128.624624 103.69009 C 128.624624 116.945219 117.882315 127.687528 104.627186 127.687528 L 23.997052 127.687528 C 10.741923 127.687528 -0.000385803 116.945219 -0.000385803 103.69009 L -0.000385803 23.997029 C -0.000385803 10.7419 10.741923 -0.000408693 23.997052 -0.000408693 L 104.627186 -0.000408693 C 117.882315 -0.000408693 128.624624 10.7419 128.624624 23.997029 Z M 128.624624 23.997029 " stroke="#e7f8f0" stroke-width="2" stroke-opacity="1" stroke-miterlimit="4"/></g></g></svg>