<svg xmlns="http://www.w3.org/2000/svg" xmlns:xlink="http://www.w3.org/1999/xlink" width="130" zoomAndPan="magnify" viewBox="0 0 97.5 97.499997" height="130" preserveAspectRatio="xMidYMid meet" version="1.0"><defs><clipPath id="ae3fe4da92"><path d="M 0.746094 0.976562 L 96 0.976562 L 96 96.457031 L 0.746094 96.457031 Z M 0.746094 0.976562 " clip-rule="nonzero"/></clipPath><clipPath id="ad06a4bb45"><path d="M 95.976562 18.882812 L 95.976562 78.347656 C 95.976562 88.238281 87.960938 96.253906 78.070312 96.253906 L 18.652344 96.253906 C 8.761719 96.253906 0.746094 88.238281 0.746094 78.347656 L 0.746094 18.882812 C 0.746094 8.992188 8.761719 0.976562 18.652344 0.976562 L 78.070312 0.976562 C 87.960938 0.976562 95.976562 8.992188 95.976562 18.882812 Z M 95.976562 18.882812 " clip-rule="nonzero"/></clipPath></defs><g clip-path="url(#ae3fe4da92)"><g clip-path="url(#ad06a4bb45)"><path stroke-linecap="butt" transform="matrix(0.746173, 0, 0, 0.746173, 0.746431, 0.976867)" fill="none" stroke-linejoin="miter" d="M 127.624664 23.997029 L 127.624664 103.69009 C 127.624664 116.945219 116.882355 127.687528 103.627226 127.687528 L 23.996985 127.687528 C 10.741856 127.687528 -0.000452327 116.945219 -0.000452327 103.69009 L -0.000452327 23.997029 C -0.000452327 10.7419 10.741856 -0.000408693 23.996985 -0.000408693 L 103.627226 -0.000408693 C 116.882355 -0.000408693 127.624664 10.7419 127.624664 23.997029 Z M 127.624664 23.997029 " stroke="#e7f8f0" stroke-width="2" stroke-opacity="1" stroke-miterlimit="4"/></g></g></svg>