<svg xmlns="http://www.w3.org/2000/svg" xmlns:xlink="http://www.w3.org/1999/xlink" width="130" zoomAndPan="magnify" viewBox="0 0 97.5 97.499997" height="130" preserveAspectRatio="xMidYMid meet" version="1.0"><defs><clipPath id="77f8e8de6c"><path d="M 1.328125 1.578125 L 95.347656 1.578125 L 95.347656 96.335938 L 1.328125 96.335938 Z M 1.328125 1.578125 " clip-rule="nonzero"/></clipPath><clipPath id="739a6c96fc"><path d="M 5.804688 1.578125 L 91.1875 1.578125 C 93.660156 1.578125 95.664062 3.582031 95.664062 6.054688 L 95.664062 91.773438 C 95.664062 94.246094 93.660156 96.25 91.1875 96.25 L 5.804688 96.25 C 3.335938 96.25 1.328125 94.246094 1.328125 91.773438 L 1.328125 6.054688 C 1.328125 3.582031 3.335938 1.578125 5.804688 1.578125 Z M 5.804688 1.578125 " clip-rule="nonzero"/></clipPath></defs><g clip-path="url(#77f8e8de6c)"><g clip-path="url(#739a6c96fc)"><path stroke-linecap="butt" transform="matrix(0.746173, 0, 0, 0.746173, 1.329875, 1.578824)" fill="none" stroke-linejoin="miter" d="M 5.997014 -0.000937366 L 120.424579 -0.000937366 C 123.738361 -0.000937366 126.423938 2.68464 126.423938 5.998422 L 126.423938 120.8762 C 126.423938 124.189982 123.738361 126.875559 120.424579 126.875559 L 5.997014 126.875559 C 2.688467 126.875559 -0.00234534 124.189982 -0.00234534 120.8762 L -0.00234534 5.998422 C -0.00234534 2.68464 2.688467 -0.000937366 5.997014 -0.000937366 Z M 5.997014 -0.000937366 " stroke="#e7f8f0" stroke-width="2" stroke-opacity="1" stroke-miterlimit="4"/></g></g></svg>